<svg width="78" height="74" viewBox="0 0 78 74" fill="none" xmlns="http://www.w3.org/2000/svg">
<rect x="11.6569" y="18.9706" width="16" height="69" transform="rotate(-45 11.6569 18.9706)" fill="#223360"/>
<circle cx="17.3137" cy="13.3137" r="8" transform="rotate(-45 17.3137 13.3137)" fill="#223360"/>
<circle cx="66.1041" cy="62.1041" r="8" transform="rotate(-45 66.1041 62.1041)" fill="#223360"/>
<rect x="60.4472" y="7.65686" width="16" height="69" transform="rotate(45 60.4472 7.65686)" fill="#223360"/>
<circle cx="66.1041" cy="13.3137" r="8" transform="rotate(45 66.1041 13.3137)" fill="#223360"/>
<circle cx="17.3137" cy="62.1041" r="8" transform="rotate(45 17.3137 62.1041)" fill="#223360"/>
<rect x="5.65685" y="16.9706" width="16" height="69" transform="rotate(-45 5.65685 16.9706)" fill="#6484D8"/>
<circle cx="11.3137" cy="11.3137" r="8" transform="rotate(-45 11.3137 11.3137)" fill="#6484D8"/>
<circle cx="60.1041" cy="60.1041" r="8" transform="rotate(-45 60.1041 60.1041)" fill="#6484D8"/>
<rect x="54.4472" y="5.65686" width="16" height="69" transform="rotate(45 54.4472 5.65686)" fill="#6484D8"/>
<circle cx="60.1041" cy="11.3137" r="8" transform="rotate(45 60.1041 11.3137)" fill="#6484D8"/>
<circle cx="11.3137" cy="60.1041" r="8" transform="rotate(45 11.3137 60.1041)" fill="#6484D8"/>
</svg>
